<?xml version="1.0" encoding="utf-8"?>
<!-- Generator: Adobe Illustrator 16.0.4, SVG Export Plug-In . SVG Version: 6.00 Build 0)  -->
<!DOCTYPE svg PUBLIC "-//W3C//DTD SVG 1.1//EN" "http://www.w3.org/Graphics/SVG/1.1/DTD/svg11.dtd">
<svg version="1.1" id="Layer_1" xmlns="http://www.w3.org/2000/svg" xmlns:xlink="http://www.w3.org/1999/xlink" x="0px" y="0px"
	 width="112px" height="112px" viewBox="0 0 112 112" enable-background="new 0 0 112 112" xml:space="preserve">
<path d="M53.667,32.667c0,6.445-5.222,11.667-11.667,11.667s-11.667-5.222-11.667-11.667S35.555,21,42,21
	S53.667,26.222,53.667,32.667z M18.667,0h-14v5.334l14-3.309V0z M84,60.666H0V12.021l23.333-7.355h9.333V0h18.667v4.667H84V60.666z
	 M60.666,32.667C60.666,22.358,52.309,14,42,14s-18.667,8.358-18.667,18.667S31.691,51.334,42,51.334S60.666,42.976,60.666,32.667z
	 M112,87.666H89.666V65.334h-2v22.332H65.334v2h22.332V112h2V89.666H112V87.666z"/>
</svg>
