<?xml version="1.0" encoding="utf-8"?>
<!-- Generator: Adobe Illustrator 16.0.4, SVG Export Plug-In . SVG Version: 6.00 Build 0)  -->
<!DOCTYPE svg PUBLIC "-//W3C//DTD SVG 1.1//EN" "http://www.w3.org/Graphics/SVG/1.1/DTD/svg11.dtd">
<svg version="1.1" id="Layer_1" xmlns="http://www.w3.org/2000/svg" xmlns:xlink="http://www.w3.org/1999/xlink" x="0px" y="0px"
	 width="112px" height="112px" viewBox="0 0 112 112" enable-background="new 0 0 112 112" xml:space="preserve">
<path d="M46.667,32.667c0,7.733-6.267,14-14,14c-7.731,0-14-6.267-14-14c0-7.732,6.269-14,14-14S46.667,24.934,46.667,32.667z
	 M65.334,32.667V112H0V32.667C0,14.625,14.625,0,32.667,0C50.708,0,65.334,14.625,65.334,32.667z M56,32.667
	C56,19.783,45.551,9.334,32.667,9.334S9.334,19.783,9.334,32.667C9.334,45.552,19.783,56,32.667,56S56,45.551,56,32.667z
	 M112,46.667V84H70V46.667H112z M102.666,56H79.334v18.666h23.332V56z"/>
</svg>
