<?xml version="1.0" encoding="utf-8"?>
<!-- Generator: Adobe Illustrator 16.0.4, SVG Export Plug-In . SVG Version: 6.00 Build 0)  -->
<!DOCTYPE svg PUBLIC "-//W3C//DTD SVG 1.1//EN" "http://www.w3.org/Graphics/SVG/1.1/DTD/svg11.dtd">
<svg version="1.1" id="Layer_1" xmlns="http://www.w3.org/2000/svg" xmlns:xlink="http://www.w3.org/1999/xlink" x="0px" y="0px"
	 width="112px" height="111.412px" viewBox="0 0 112 111.412" enable-background="new 0 0 112 111.412" xml:space="preserve">
<path d="M112,41.412v9.333v60.667H0V50.745h9.333l9.334-9.333H28l-9.333,9.333h14L42,41.412h9.333L42,50.745h14l9.334-9.333h9.332
	l-9.332,9.333h14l9.332-9.333H98l-9.334,9.333h14L112,41.412z M104.15,0l-8.896,2.819L106.968,8.9L104.15,0z M4.667,46.079
	c2.578,0,4.667-2.089,4.667-4.667s-2.089-4.667-4.667-4.667C2.09,36.745,0,38.834,0,41.412S2.089,46.079,4.667,46.079z
	 M17.948,37.072l5.856,3.038l84.479-26.773l-1.382-4.457l-13.325,4.223L81.908,7.05l-8.899,2.819l11.675,6.053l-13.347,4.229
	l-11.675-6.054l-8.895,2.819l11.67,6.056l-13.345,4.229l-11.672-6.052l-8.899,2.819l11.676,6.053l-13.352,4.231L15.18,28.196
	l-8.898,2.818l11.671,6.056L17.948,37.072z"/>
</svg>
