<?xml version="1.0" encoding="utf-8"?>
<!-- Generator: Adobe Illustrator 16.0.4, SVG Export Plug-In . SVG Version: 6.00 Build 0)  -->
<!DOCTYPE svg PUBLIC "-//W3C//DTD SVG 1.1//EN" "http://www.w3.org/Graphics/SVG/1.1/DTD/svg11.dtd">
<svg version="1.1" id="Layer_1" xmlns="http://www.w3.org/2000/svg" xmlns:xlink="http://www.w3.org/1999/xlink" x="0px" y="0px"
	 width="111.921px" height="112px" viewBox="0 0 111.921 112" enable-background="new 0 0 111.921 112" xml:space="preserve">
<path d="M65.255,111.914V112h-14V64.548c-19.053-0.915-34.112-12.24-34.112-28.376c0-20.025,18.022-27.646,18.022-27.646
	c-0.709,7.443,1.596,17.192,3.522,21.607C38.478,10.832,49.776,4.293,53.755,0c0.006,0.014,0.01,0.033,0.01,0.051
	c0.005-0.014,0.01-0.033,0.01-0.051c3.98,4.298,15.277,10.832,15.068,30.133c1.928-4.415,4.231-14.164,3.522-21.607
	c0,0,18.022,7.621,18.022,27.646c0,13.497-10.539,23.625-25.135,27.117v22.402c9.364-13.863,28.107-31.223,46.666-34.357
	C111.921,102.764,89.05,111.047,65.255,111.914z M0.001,51.45c0,46.54,23.455,60.466,46.586,60.466v-23.38
	C29.382,63.271,0.001,51.45,0.001,51.45z"/>
</svg>
