<?xml version="1.0" encoding="utf-8"?>
<!-- Generator: Adobe Illustrator 16.0.4, SVG Export Plug-In . SVG Version: 6.00 Build 0)  -->
<!DOCTYPE svg PUBLIC "-//W3C//DTD SVG 1.1//EN" "http://www.w3.org/Graphics/SVG/1.1/DTD/svg11.dtd">
<svg version="1.1" id="Layer_1" xmlns="http://www.w3.org/2000/svg" xmlns:xlink="http://www.w3.org/1999/xlink" x="0px" y="0px"
	 width="112px" height="88.667px" viewBox="0 0 112 88.667" enable-background="new 0 0 112 88.667" xml:space="preserve">
<path d="M23.333,7.729L4.666,14.001V4.667h18.667V7.729L23.333,7.729z M112,9.334v79.333H0V20.035L32.667,9.333h4.667V0h37.333
	v9.333L112,9.334L112,9.334z M84,46.667c0-15.465-12.535-28-28-28s-28,12.535-28,28s12.535,28,28,28S84,62.132,84,46.667z M56,28
	c-10.309,0-18.667,8.358-18.667,18.667c0,10.309,8.358,18.666,18.667,18.666s18.666-8.357,18.666-18.666
	C74.666,36.358,66.309,28,56,28z"/>
</svg>
