<?xml version="1.0" encoding="utf-8"?>
<!-- Generator: Adobe Illustrator 16.0.4, SVG Export Plug-In . SVG Version: 6.00 Build 0)  -->
<!DOCTYPE svg PUBLIC "-//W3C//DTD SVG 1.1//EN" "http://www.w3.org/Graphics/SVG/1.1/DTD/svg11.dtd">
<svg version="1.1" id="Layer_1" xmlns="http://www.w3.org/2000/svg" xmlns:xlink="http://www.w3.org/1999/xlink" x="0px" y="0px"
	 width="112px" height="93.333px" viewBox="0 0 112 93.333" enable-background="new 0 0 112 93.333" xml:space="preserve">
<path d="M0,0v93.333h112V0H0z M102.666,84H9.333V9.333h93.333V84z M98,14H14v65.333h84V14z M93.334,74.667H18.667v-56h74.667V74.667
	z M45.08,52.042c-3.244,0.146-4.503-1.045-4.503-1.045l18.177-18.325c0.909,0.126,3.645,0.76,6.906,3.99
	c2.389,2.361,3.896,4.873,4.074,6.882L51.547,61.856c0,0-1.488-1.73-1.334-4.82C46.43,55.258,45.775,53.518,45.08,52.042z
	 M71.312,31.118c-3.016-2.987-5.765-3.575-7.131-3.664c1.217-0.971,2.873-2.31,3.4-2.818c1.514-1.456,4.48-2.487,8.773,1.031
	c4.293,3.519,3.084,7.061,1.429,8.745c-0.247,0.252-1.849,2.315-2.87,3.636C74.887,36.628,74.312,34.084,71.312,31.118z
	 M49.43,63.045l-16.796,6.979l6.729-16.861c0,0,0.677,0.654,3.574,0.646c0.943,2.941,4.019,4.814,5.194,5.188
	C48.1,60.405,49.43,63.045,49.43,63.045z M67.588,34.967c-3.775-3.738-6.959-4.256-6.959-4.256l1.666-1.638
	c0,0,3.197-0.098,7.221,3.915c4.092,4.093,3.536,6.968,3.536,6.968l-1.591,1.586C71.232,39.802,69.953,37.319,67.588,34.967z"/>
</svg>
