<?xml version="1.0" encoding="utf-8"?>
<!-- Generator: Adobe Illustrator 16.0.4, SVG Export Plug-In . SVG Version: 6.00 Build 0)  -->
<!DOCTYPE svg PUBLIC "-//W3C//DTD SVG 1.1//EN" "http://www.w3.org/Graphics/SVG/1.1/DTD/svg11.dtd">
<svg version="1.1" id="Layer_1" xmlns="http://www.w3.org/2000/svg" xmlns:xlink="http://www.w3.org/1999/xlink" x="0px" y="0px"
	 width="112px" height="112px" viewBox="0 0 112 112" enable-background="new 0 0 112 112" xml:space="preserve">
<path d="M0,0v112h112V0H0z M23.333,107.334h-14V98h14V107.334z M23.333,88.666h-14v-9.332h14V88.666z M23.333,70h-14v-9.334h14V70z
	 M23.333,51.333h-14V42h14V51.333z M23.333,32.667h-14v-9.333h14V32.667z M23.333,14h-14V4.667h14V14z M102.666,107.334h-14V98h14
	V107.334z M102.666,88.666h-14v-9.332h14V88.666z M102.666,70h-14v-9.334h14V70z M102.666,51.333h-14V42h14V51.333z M102.666,32.667
	h-14v-9.333h14V32.667z M102.666,14h-14V4.667h14V14z"/>
</svg>
