<?xml version="1.0" encoding="utf-8"?>
<!-- Generator: Adobe Illustrator 16.0.4, SVG Export Plug-In . SVG Version: 6.00 Build 0)  -->
<!DOCTYPE svg PUBLIC "-//W3C//DTD SVG 1.1//EN" "http://www.w3.org/Graphics/SVG/1.1/DTD/svg11.dtd">
<svg version="1.1" id="Layer_1" xmlns="http://www.w3.org/2000/svg" xmlns:xlink="http://www.w3.org/1999/xlink" x="0px" y="0px"
	 width="112px" height="112px" viewBox="0 0 112 112" enable-background="new 0 0 112 112" xml:space="preserve">
<path d="M74.666,56c0,10.309-8.357,18.666-18.666,18.666S37.333,66.309,37.333,56c0-2.198,0.448-4.279,1.144-6.235
	C39.755,51.133,41.561,52,43.581,52c3.864,0,7-3.136,7-7c0-2.319-1.144-4.363-2.884-5.637c2.51-1.255,5.306-2.03,8.302-2.03
	C66.309,37.333,74.666,45.691,74.666,56z M112,8.447v95.106c0,4.662-3.779,8.447-8.447,8.447H8.447C3.785,112,0,108.221,0,103.553
	V8.447C0,3.78,3.785,0,8.447,0h95.105C108.215,0,112,3.78,112,8.447z M84,56c0-15.465-12.535-28-28-28S28,40.535,28,56
	s12.535,28,28,28S84,71.465,84,56z"/>
</svg>
