<?xml version="1.0" encoding="utf-8"?>
<!-- Generator: Adobe Illustrator 16.0.4, SVG Export Plug-In . SVG Version: 6.00 Build 0)  -->
<!DOCTYPE svg PUBLIC "-//W3C//DTD SVG 1.1//EN" "http://www.w3.org/Graphics/SVG/1.1/DTD/svg11.dtd">
<svg version="1.1" id="Layer_1" xmlns="http://www.w3.org/2000/svg" xmlns:xlink="http://www.w3.org/1999/xlink" x="0px" y="0px"
	 width="111.795px" height="111.757px" viewBox="0 0 111.795 111.757" enable-background="new 0 0 111.795 111.757"
	 xml:space="preserve">
<path d="M18.667,58.125c0-11.599,9.402-21,21-21s21,9.402,21,21c0,11.598-9.4,21-21,21C28.069,79.125,18.667,69.722,18.667,58.125z
	 M93.612,0c3.427,3.542,5.554,8.354,5.554,13.669c0,10.882-8.819,19.707-19.702,19.707c-2.216,0-4.312-0.448-6.3-1.125
	c3.757,5.736,10.215,9.539,17.588,9.539c11.625,0,21.043-9.417,21.043-21.042C111.795,10.108,103.871,1.406,93.612,0z
	 M55.397,85.531c-4.61,2.727-9.977,4.322-15.73,4.322s-11.121-1.598-15.727-4.322C13.743,88.496,0,96.306,0,111.757h79.334
	C79.334,96.185,65.595,88.49,55.397,85.531z"/>
</svg>
