<?xml version="1.0" encoding="utf-8"?>
<!-- Generator: Adobe Illustrator 16.0.4, SVG Export Plug-In . SVG Version: 6.00 Build 0)  -->
<!DOCTYPE svg PUBLIC "-//W3C//DTD SVG 1.1//EN" "http://www.w3.org/Graphics/SVG/1.1/DTD/svg11.dtd">
<svg version="1.1" id="Layer_1" xmlns="http://www.w3.org/2000/svg" xmlns:xlink="http://www.w3.org/1999/xlink" x="0px" y="0px"
	 width="84px" height="112px" viewBox="0 0 84 112" enable-background="new 0 0 84 112" xml:space="preserve">
<path d="M31.352,9.333H19.208C25.242,3.453,33.404,0,42,0s16.758,3.453,22.792,9.333H52.648C49.4,7.849,45.803,7,42,7
	S34.6,7.849,31.352,9.333z M42,32.667c-7.732,0-14,6.268-14,14s6.268,14,14,14s14-6.268,14-14S49.732,32.667,42,32.667z
	 M74.666,79.334H9.333v-61.05c0-2.366,1.918-4.284,4.284-4.284h56.766c2.365,0,4.283,1.918,4.283,4.284V79.334L74.666,79.334z
	 M65.334,46.667c0-12.884-10.449-23.333-23.334-23.333S18.667,33.783,18.667,46.667S29.115,70,42,70S65.334,59.551,65.334,46.667z
	 M84,84H43h-2H0v9.334h27.835L11.839,112h12.325L40.16,93.334H41V112h2V93.334h0.84L59.836,112H72.16L56.164,93.334H84V84z"/>
</svg>
