<?xml version="1.0" encoding="utf-8"?>
<!-- Generator: Adobe Illustrator 16.0.4, SVG Export Plug-In . SVG Version: 6.00 Build 0)  -->
<!DOCTYPE svg PUBLIC "-//W3C//DTD SVG 1.1//EN" "http://www.w3.org/Graphics/SVG/1.1/DTD/svg11.dtd">
<svg version="1.1" id="Layer_1" xmlns="http://www.w3.org/2000/svg" xmlns:xlink="http://www.w3.org/1999/xlink" x="0px" y="0px"
	 width="104.667px" height="87.201px" viewBox="0 0 104.667 87.201" enable-background="new 0 0 104.667 87.201"
	 xml:space="preserve">
<path d="M104.667,0l-1.478,0.802c-0.17,0.092-17.353,9.212-50.838,9.212S1.647,0.894,1.477,0.802L0,0.002v87.199l1.396-0.603
	c0.215-0.092,21.809-9.252,50.956-9.252s50.704,9.159,50.919,9.252l1.396,0.603V0z M2.001,3.283c3.27,1.499,11.902,4.938,26,7.024
	v67.086c-13.115,2.185-22.584,5.504-26,6.812V3.283z M30.001,77.074V10.589c6.398,0.856,13.84,1.425,22.352,1.425
	c8.497,0,15.927-0.566,22.314-1.421v66.476c-6.67-1.02-14.201-1.723-22.314-1.723C44.227,75.347,36.682,76.052,30.001,77.074z
	 M102.667,84.205c-3.416-1.311-12.883-4.635-26-6.816V10.312c14.103-2.085,22.73-5.525,26-7.027V84.205z"/>
</svg>
