<?xml version="1.0" encoding="utf-8"?>
<!-- Generator: Adobe Illustrator 16.0.4, SVG Export Plug-In . SVG Version: 6.00 Build 0)  -->
<!DOCTYPE svg PUBLIC "-//W3C//DTD SVG 1.1//EN" "http://www.w3.org/Graphics/SVG/1.1/DTD/svg11.dtd">
<svg version="1.1" id="Layer_1" xmlns="http://www.w3.org/2000/svg" xmlns:xlink="http://www.w3.org/1999/xlink" x="0px" y="0px"
	 width="111.805px" height="111.855px" viewBox="0 0 111.805 111.855" enable-background="new 0 0 111.805 111.855"
	 xml:space="preserve">
<path d="M88.673,36.527c-0.626,6.612,5.05,10.342,4.425,11.867c-0.411,0.999-3.033,2.343-3.033,2.343
	c-0.473,2.222-1.662,8.615-3.636,11.243c-1.414,1.885-4.036,2.365-8.75,2.365c-4.858,0-10.164,2.549-10.5,7.663
	c-0.51,7.714,5.15,11.587,9.827,14.103c-1.529,3.146-9.889,8.33-18.609,8.33c-14.207,0-23.376-9.049-23.376-9.049
	c6.468-4.672,16.23-19.059,19.894-35.743C65.469,47.586,81.598,41.632,88.673,36.527z M56.262,26.796
	c18.2-3.159,26.567-15.644,26.567-15.644s-7.42-14.34-29.516-10.5c-22.098,3.842-21.341,23.87-21.341,23.87
	C34.3,26.162,39.965,29.629,56.262,26.796z M92.065,11.425c0,0-11.877,18.773-35.238,22.871
	c-19.381,3.401-29.228-2.521-29.228-2.521c-11.69,3.257-18.19,6.375-18.19,9.707c0,1.568,13.221,8.498,46.041,2.333
	c32.919-6.183,57.004-28.868,56.341-31.69C110.409,6.226,92.065,11.425,92.065,11.425z M82.218,89.172
	c-1.707,3.864-9.616,10.606-23.375,10.606c-19.469,0-29.675-10.863-29.675-10.863S8.724,96.167,7,97.184
	c-6.258,3.701-7,13.057-7,14.672h99.079C99.079,111.856,98.579,97.712,82.218,89.172z M9.716,89.248
	c32.672-6.754,37.269-38.6,37.269-38.6c-3.948,0.462-16.697,1.087-23.875,0.766c-9.702,7.625-9.007,18.658-6.463,24.665
	C8.33,79.311,9.022,87.398,9.716,89.248z"/>
</svg>
