<?xml version="1.0" encoding="utf-8"?>
<!-- Generator: Adobe Illustrator 16.0.4, SVG Export Plug-In . SVG Version: 6.00 Build 0)  -->
<!DOCTYPE svg PUBLIC "-//W3C//DTD SVG 1.1//EN" "http://www.w3.org/Graphics/SVG/1.1/DTD/svg11.dtd">
<svg version="1.1" id="Layer_1" xmlns="http://www.w3.org/2000/svg" xmlns:xlink="http://www.w3.org/1999/xlink" x="0px" y="0px"
	 width="112px" height="85px" viewBox="0 0 112 85" enable-background="new 0 0 112 85" xml:space="preserve">
<path d="M112,24.333v42c0,0-4.592,0-9.334,0c-4.74,0-9.332-9.334-14-9.334C84,57,84,57,84,57V33.667c0,0,0,0,4.666,0
	c4.668,0,9.479-9.333,14-9.333S112,24.333,112,24.333z M95.666,9.5h4.668c0.828,0,1.5-0.671,1.5-1.5s-0.672-1.5-1.5-1.5h-4.668
	h-2.332H84v3h9.334H95.666z M79.334,21.155v45.179v3.178v11.215c0,2.361-1.914,4.273-4.275,4.273H54.232
	c-1.778,0-3.402-1.004-4.195-2.59l-3.37-6.742H32.724l-3.957,7.863C28.324,84.432,27.404,85,26.396,85H15.915
	c-1.349,0-2.226-1.418-1.624-2.627l3.378-6.705H6.156C2.758,75.668,0,72.908,0,69.512V21.155C0,17.758,2.758,15,6.156,15h25.098
	L44.042,2.211C45.449,0.807,47.394,0,49.378,0h19.543c3.721,0,6.744,3.025,6.744,6.745v8.784
	C77.824,16.485,79.334,18.645,79.334,21.155z M34.081,15h39.097c0.164,0,0.326,0.012,0.488,0.025v-8.28
	C73.666,4.129,71.537,2,68.922,2H49.377c-1.459,0-2.89,0.592-3.922,1.625L34.081,15z M37.333,29H14v18.667h23.333V29L37.333,29z"/>
</svg>
