<?xml version="1.0" encoding="utf-8"?>
<!-- Generator: Adobe Illustrator 16.0.4, SVG Export Plug-In . SVG Version: 6.00 Build 0)  -->
<!DOCTYPE svg PUBLIC "-//W3C//DTD SVG 1.1//EN" "http://www.w3.org/Graphics/SVG/1.1/DTD/svg11.dtd">
<svg version="1.1" id="Layer_1" xmlns="http://www.w3.org/2000/svg" xmlns:xlink="http://www.w3.org/1999/xlink" x="0px" y="0px"
	 width="112px" height="88.667px" viewBox="0 0 112 88.667" enable-background="new 0 0 112 88.667" xml:space="preserve">
<path d="M23.333,7.729L4.666,14.001V4.667h18.667V7.729L23.333,7.729z M112,9.334v79.333H0V20.035L32.667,9.333h4.667V0h37.333
	v9.333L112,9.334L112,9.334z M81.666,51.333h-7c0,10.311-8.357,18.668-18.666,18.668s-18.667-8.357-18.667-18.668
	c0-10.308,8.358-18.666,18.667-18.666c2.6,0,5.062,0.551,7.303,1.517l-5.842,6.238l17.486-0.582l-1.484-16.506l-5.152,5.507
	C64.652,26.83,60.466,25.667,56,25.667c-14.177,0-25.667,11.49-25.667,25.666c0,14.178,11.489,25.668,25.667,25.668
	S81.666,65.511,81.666,51.333z"/>
</svg>
