<?xml version="1.0" encoding="utf-8"?>
<!-- Generator: Adobe Illustrator 16.0.4, SVG Export Plug-In . SVG Version: 6.00 Build 0)  -->
<!DOCTYPE svg PUBLIC "-//W3C//DTD SVG 1.1//EN" "http://www.w3.org/Graphics/SVG/1.1/DTD/svg11.dtd">
<svg version="1.1" id="Layer_1" xmlns="http://www.w3.org/2000/svg" xmlns:xlink="http://www.w3.org/1999/xlink" x="0px" y="0px"
	 width="112px" height="112px" viewBox="0 0 112 112" enable-background="new 0 0 112 112" xml:space="preserve">
<path d="M83.748,56.988c-1.354,8.844-8.582,16.072-17.426,17.426c-14.191,2.176-26.24-9.875-24.065-24.065
	c1.353-8.843,8.582-16.072,17.424-17.425C73.869,30.749,85.918,42.792,83.748,56.988z M112,22.517v80.968
	c0,4.703-3.812,8.516-8.512,8.516H8.516C3.813,112,0,108.189,0,103.488V22.517C0,17.812,3.811,14,8.516,14h0.817v-1.895
	c0-1.531,1.241-2.772,2.772-2.772h13.123c1.53,0,2.771,1.241,2.771,2.772V14h7.229l5.717-11.816C41.589,0.849,42.944,0,44.422,0
	h37.156c1.479,0,2.832,0.849,3.473,2.184L90.768,14h12.717C108.188,14,112,17.812,112,22.517z M24.5,23.333
	c0-3.22-2.613-5.833-5.833-5.833s-5.833,2.613-5.833,5.833s2.613,5.833,5.833,5.833C21.887,29.167,24.5,26.553,24.5,23.333z
	 M56.061,24.104c-11.152,2.473-20.149,11.471-22.623,22.624c-4.91,22.13,14.373,41.407,36.501,36.503
	c11.154-2.475,20.15-11.471,22.625-22.625C97.469,38.477,78.189,19.199,56.061,24.104z"/>
</svg>
