<?xml version="1.0" encoding="utf-8"?>
<!-- Generator: Adobe Illustrator 16.0.4, SVG Export Plug-In . SVG Version: 6.00 Build 0)  -->
<!DOCTYPE svg PUBLIC "-//W3C//DTD SVG 1.1//EN" "http://www.w3.org/Graphics/SVG/1.1/DTD/svg11.dtd">
<svg version="1.1" id="Layer_1" xmlns="http://www.w3.org/2000/svg" xmlns:xlink="http://www.w3.org/1999/xlink" x="0px" y="0px"
	 width="112px" height="93.333px" viewBox="0 0 112 93.333" enable-background="new 0 0 112 93.333" xml:space="preserve">
<path d="M65.334,74.667H28c1.814-6.764,5.771-9.908,10.827-11.233c2.338,1.255,5.007,1.97,7.84,1.97c2.837,0,5.507-0.719,7.845-1.97
	C59.561,64.759,63.518,67.904,65.334,74.667z M32.667,46.666c0-7.732,6.269-14,14-14c7.733,0,14,6.267,14,14c0,7.733-6.267,14-14,14
	C38.934,60.667,32.667,54.399,32.667,46.666z M37.305,51.333c1.723,3.442,5.246,5.834,9.361,5.834c4.116,0,7.641-2.392,9.361-5.834
	H37.305z M112,22.516v62.3c0,4.704-3.812,8.518-8.512,8.518H8.516C3.813,93.333,0,89.521,0,84.821V22.516
	c0-4.704,3.812-8.517,8.517-8.517h12.713l5.717-11.816c0.644-1.334,1.998-2.184,3.477-2.184h37.156c1.479,0,2.832,0.85,3.477,2.184
	l5.717,11.816H84v-1.895c0-1.531,1.242-2.772,2.777-2.772h13.117c1.531,0,2.771,1.241,2.771,2.772v1.895h0.816
	C108.188,14,112,17.812,112,22.516z M79.334,28H14v51.333h65.333V28z M102.666,58.333c0-3.865-3.135-7-7-7c-3.863,0-7,3.135-7,7
	c0,3.863,3.137,7,7,7C99.531,65.333,102.666,62.197,102.666,58.333z M102.666,35c0-3.864-3.135-7-7-7c-3.863,0-7,3.136-7,7
	c0,3.864,3.137,7,7,7C99.531,42,102.666,38.864,102.666,35z"/>
</svg>
