<?xml version="1.0" encoding="utf-8"?>
<!-- Generator: Adobe Illustrator 16.0.4, SVG Export Plug-In . SVG Version: 6.00 Build 0)  -->
<!DOCTYPE svg PUBLIC "-//W3C//DTD SVG 1.1//EN" "http://www.w3.org/Graphics/SVG/1.1/DTD/svg11.dtd">
<svg version="1.1" id="Layer_1" xmlns="http://www.w3.org/2000/svg" xmlns:xlink="http://www.w3.org/1999/xlink" x="0px" y="0px"
	 width="102.664px" height="111.998px" viewBox="0 0 102.664 111.998" enable-background="new 0 0 102.664 111.998"
	 xml:space="preserve">
<path d="M37.332,14c0-7.732,6.268-14,14-14c7.732,0,14,6.268,14,14s-6.268,14-14,14C43.599,28,37.332,21.732,37.332,14z
	 M18.716,61.308c1.256-0.584,1.666-2.576,0.836-4.767c-1.214-3.21-4.593-10.341-4.593-10.341s12.521-0.901,15.078-1.134
	c-0.985-7.476,1.476-12.399,1.476-12.399s-25.111,3.304-28.388,4.14c-3.976,1.017-3.478,4.293-2.212,6.192
	c1.199,1.806,9.529,12.95,11.951,15.549C15.124,60.972,17.247,61.992,18.716,61.308z M96.267,33.367
	c-3.16,2.03-21.652,14.789-21.652,14.789s-10.771-5.054-16.735-8.46c-2.501-1.428-5.045-2.987-8.319-2.987
	c-2.474,0-5.002,1.801-5.67,4.96c-0.625,2.95,0.686,6.398,5.539,8.507c4.507,1.96,7.49,2.954,21.835,9.072
	c4.035,1.724,6.233,1.739,9.748-1.372c3.443-3.052,15.646-14.075,20.127-18.251C105.218,35.821,100.261,30.805,96.267,33.367z
	 M65.457,70.69c-3.201-1.209-2.89-1.037-32.62-12.73c0,0-18.605,40.712-20.767,45.495c-1.681,3.711-1.638,6.485,1.377,8.06
	c3.01,1.567,5.548-0.971,7.602-3.406c2.097-2.491,14.505-19.848,14.505-19.848s17.255-4.736,26.837-7.173
	C69.345,79.319,71.052,72.8,65.457,70.69z"/>
</svg>
