<?xml version="1.0" encoding="utf-8"?>
<!-- Generator: Adobe Illustrator 16.0.4, SVG Export Plug-In . SVG Version: 6.00 Build 0)  -->
<!DOCTYPE svg PUBLIC "-//W3C//DTD SVG 1.1//EN" "http://www.w3.org/Graphics/SVG/1.1/DTD/svg11.dtd">
<svg version="1.1" id="Layer_1" xmlns="http://www.w3.org/2000/svg" xmlns:xlink="http://www.w3.org/1999/xlink" x="0px" y="0px"
	 width="112px" height="92.484px" viewBox="0 0 112 92.484" enable-background="new 0 0 112 92.484" xml:space="preserve">
<path d="M37.333,66.607l17.365,13.248L37.333,92.484l0.019-9.74C18.068,80.443,0,74.494,0,62.024c0-4.172,5.105-8.456,13.859-10.574
	v3.64c-5.502,1.425-8.092,4.667-8.092,6.939c0,3.957,11.42,10.748,31.612,13.226L37.333,66.607z M98.154,51.45v3.905
	c4.615,0.977,8.143,4.625,8.143,6.496c0,5.418-14.056,12.685-40.963,13.229v8.554C91.639,83.002,112,73.719,112,61.856
	C112,57.807,104.809,52.779,98.154,51.45z M56,21c-6.445,0-11.667,5.223-11.667,11.667c0,6.445,5.222,11.667,11.667,11.667
	s11.666-5.223,11.666-11.667S62.445,21,56,21z M32.667,0h-9.333v5.334l9.333-3.309V0L32.667,0z M93.334,60.666H18.667V12.021
	l18.667-7.355h9.333V0h18.667v4.667h28V60.666z M74.666,32.667C74.666,22.358,66.309,14,56,14s-18.667,8.358-18.667,18.667
	c0,10.31,8.358,18.667,18.667,18.667S74.666,42.976,74.666,32.667z"/>
</svg>
